<svg width="735" height="170" xmlns="http://www.w3.org/2000/svg" overflow="hidden"><g clip-path="url(#clip0)"><path d="M533.121 81.575c-4.507 0-8.284 1.873-11.331 5.618-3.047 3.745-4.57 10.03-4.57 18.853 0 8.252 1.571 14.298 4.713 18.138 3.142 3.84 7.03 5.761 11.664 5.761 4.951 0 9.077-1.937 12.378-5.809s4.951-10.188 4.951-18.947c0-7.935-1.682-13.854-5.046-17.758-3.365-3.904-7.618-5.856-12.759-5.856zm133.808-2.285c-5.649 0-10.315 2.174-13.996 6.522-3.682 4.349-5.523 10.966-5.523 19.853 0 9.013 1.825 15.678 5.475 19.995 3.65 4.316 8.236 6.474 13.759 6.474 5.586 0 10.172-2.126 13.758-6.379 3.587-4.253 5.38-11.077 5.38-20.471 0-8.76-1.809-15.282-5.427-19.567-3.619-4.284-8.094-6.427-13.426-6.427zM72.215 75.577c-6.157 0-11.077 2.444-14.758 7.331-2.349 3.047-3.84 7.586-4.475 13.616h38.18c-.761-7.49-2.776-12.854-6.045-16.091-3.27-3.238-7.57-4.856-12.902-4.856zm218.537-20.662h38.752v101.118h-38.752zm375.606-2.285c20.249 0 35.547 5.872 45.894 17.615 8.315 9.458 12.473 21.106 12.473 34.944 0 15.551-5.158 28.294-15.473 38.228-10.315 9.935-24.581 14.902-42.799 14.902-16.25 0-29.389-4.126-39.419-12.378-12.314-10.22-18.471-23.614-18.471-40.181 0-15.425 5.205-28.136 15.615-38.134 10.41-9.997 24.47-14.996 42.18-14.996zm-240.386 0c10.728 0 19.123 3.19 25.185 9.57 6.062 6.379 9.093 16.233 9.093 29.563v64.27h-38.943v-55.605c0-6.348-1.175-10.839-3.523-13.473-2.349-2.634-5.65-3.951-9.903-3.951-4.697 0-8.505 1.777-11.425 5.332-2.92 3.554-4.38 9.934-4.38 19.138v48.559h-38.753V54.915h36.087v16.472c5.395-6.728 10.854-11.537 16.377-14.425 5.522-2.888 12.251-4.332 20.185-4.332zm-355.376 0c14.473 0 25.899 2.19 34.278 6.57 8.379 4.38 14.758 10.727 19.138 19.043 4.38 8.315 6.57 19.138 6.57 32.468v4.38H52.886c.699 6.221 2.38 10.854 5.047 13.901 3.745 4.38 8.633 6.57 14.663 6.57 3.808 0 7.427-.952 10.854-2.856 2.095-1.206 4.348-3.333 6.76-6.38l38.182 3.523c-5.84 10.157-12.886 17.44-21.138 21.852-8.252 4.412-20.09 6.618-35.515 6.618-13.394 0-23.93-1.889-31.612-5.666-7.68-3.777-14.044-9.775-19.09-17.995-5.046-8.221-7.57-17.885-7.57-28.993 0-15.806 5.063-28.597 15.187-38.372C38.78 57.518 52.76 52.63 70.596 52.63zM550.64 16.448h39.134v139.585h-36.277v-14.948c-5.078 6.347-9.712 10.632-13.902 12.854-5.586 2.92-11.806 4.38-18.662 4.38-13.774 0-24.295-5.237-31.564-15.711-7.268-10.474-10.902-23.201-10.902-38.181 0-16.758 4.015-29.58 12.045-38.467 8.03-8.887 18.234-13.33 30.612-13.33 6.03 0 11.505 1.016 16.424 3.047 4.92 2.031 9.284 5.078 13.092 9.14zm-259.888 0h38.752v26.375h-38.752zm-141.096 0h38.848v139.585h-38.848zm103.943-2.38c6.792 0 16.663.793 29.612 2.38l-4.285 23.423c-4.633-.761-8.379-1.142-11.235-1.142-3.491 0-5.998.587-7.522 1.761-1.523 1.174-2.603 3.031-3.237 5.57-.318 1.397-.476 4.348-.476 8.855h18.471V83.29h-18.471v72.744h-38.848V83.289h-14.473V54.915h14.473v-4.57c0-4.126.444-8.665 1.333-13.616.889-4.951 2.555-8.998 4.999-12.14 2.444-3.142 5.871-5.68 10.283-7.617 4.412-1.936 10.87-2.904 19.376-2.904z" fill="#015B84" fill-rule="evenodd"/><path d="m533.125 82.079-3.085.381-2.893 1.025-2.593 1.689-2.358 2.357-1.939 3.212-1.346 4.098-.869 5.15-.306 6.13.313 5.698.86 4.834 1.468 4.036 2.004 3.219 2.424 2.423 2.655 1.75 2.951 1.024 3.203.363 3.455-.364 3.144-1.027 2.839-1.753 2.546-2.484 2.125-3.279 1.467-4.156.93-5.148.305-6.062-.312-5.509-.921-4.701-1.527-3.971-2.127-3.22-2.609-2.489-2.903-1.814-3.266-1.028zm.048-1 3.741.395c.034.003.066.01.098.02l3.375 1.063c.04.012.079.03.115.052l3 1.875a.504.504 0 0 1 .08.063l2.687 2.562a.481.481 0 0 1 .073.086l2.187 3.313c.02.03.037.062.05.096l1.562 4.062a.414.414 0 0 1 .024.084l.946 4.88.313 5.616-.32 6.189-.938 5.187a.406.406 0 0 1-.02.078l-1.5 4.25a.513.513 0 0 1-.052.105l-2.188 3.375a.479.479 0 0 1-.07.086l-2.625 2.563a.509.509 0 0 1-.086.067l-2.938 1.813a.547.547 0 0 1-.107.05l-3.25 1.062a.525.525 0 0 1-.103.022l-3.563.375a.487.487 0 0 1-.108 0l-3.313-.375a.477.477 0 0 1-.107-.025l-3.063-1.062a.5.5 0 0 1-.111-.055l-2.75-1.813a.481.481 0 0 1-.079-.064l-2.5-2.5a.514.514 0 0 1-.071-.089l-2.062-3.312a.477.477 0 0 1-.045-.094l-1.5-4.125a.487.487 0 0 1-.023-.083l-.882-4.998-.312-5.802.318-6.246.875-5.187a.879.879 0 0 1 .018-.073l1.375-4.188a.543.543 0 0 1 .047-.102l2-3.313a.491.491 0 0 1 .075-.095l2.437-2.437a.527.527 0 0 1 .081-.066l2.688-1.75a.48.48 0 0 1 .106-.052l3-1.062a.49.49 0 0 1 .105-.025l3.196-.396a.5.5 0 0 1 .114 0zm133.755-1.286-3.895.42-3.584 1.214-3.216 1.942-2.858 2.797-2.378 3.597-1.714 4.47-.992 5.33-.367 6.188.311 6.222 1.047 5.361 1.653 4.408 2.379 3.598 2.796 2.797 3.215 1.941 3.519 1.213 3.831.365 3.897-.365 3.516-1.152 3.152-1.94 2.792-2.732 2.253-3.592 1.656-4.537 1.055-5.585.304-6.493-.31-6.04-1.048-5.237-1.654-4.41-2.314-3.533-2.796-2.734-3.095-1.881-3.397-1.214zm-.052-1a.503.503 0 0 1 .109 0l3.87.431a.51.51 0 0 1 .113.026l3.5 1.25a.494.494 0 0 1 .091.044l3.188 1.937a.55.55 0 0 1 .09.07l2.875 2.813a.55.55 0 0 1 .068.083l2.375 3.625c.02.03.037.064.05.098l1.688 4.5a.674.674 0 0 1 .022.078l1.062 5.312a.445.445 0 0 1 .009.073l.313 6.174-.321 6.632-1.062 5.625a.432.432 0 0 1-.022.078l-1.687 4.625a.555.555 0 0 1-.046.095l-2.313 3.687a.543.543 0 0 1-.074.092l-2.875 2.812a.496.496 0 0 1-.088.069l-3.25 2a.51.51 0 0 1-.106.049l-3.625 1.188a.502.502 0 0 1-.109.022l-4 .375a.492.492 0 0 1-.094 0l-3.937-.375a.5.5 0 0 1-.116-.025l-3.625-1.25a.434.434 0 0 1-.095-.045l-3.313-2a.426.426 0 0 1-.095-.074l-2.875-2.875a.531.531 0 0 1-.064-.078l-2.437-3.687a.479.479 0 0 1-.051-.101l-1.688-4.5a.511.511 0 0 1-.022-.079l-1.063-5.438a.55.55 0 0 1-.008-.071l-.313-6.367.383-6.312 1-5.375a.449.449 0 0 1 .025-.087l1.75-4.563a.498.498 0 0 1 .049-.096l2.438-3.688a.485.485 0 0 1 .067-.081l2.938-2.875a.474.474 0 0 1 .091-.071l3.313-2a.467.467 0 0 1 .097-.046l3.688-1.25a.506.506 0 0 1 .107-.023zM72.22 76.08l-4.248.446-3.822 1.334-3.337 2.245-2.93 3.112L56.31 85.7l-1.233 3.082-.917 3.625-.585 3.626H90.59l-.722-4.61-1.225-4.337-1.708-3.537-2.118-2.723-2.6-2.056-2.91-1.455-3.346-.912zm.038-1 3.835.331c.03.003.059.008.088.016l3.438.938c.031.008.062.02.091.035l3 1.5a.49.49 0 0 1 .087.055l2.688 2.125c.031.025.06.053.084.085l2.188 2.812c.021.028.04.058.055.09l1.75 3.625a.499.499 0 0 1 .031.082l1.263 4.496.812 5.187a.5.5 0 0 1-.494.577H52.987a.5.5 0 0 1-.494-.58l.697-4.293.958-3.75 1.25-3.125a.496.496 0 0 1 .042-.082l1.625-2.562a.5.5 0 0 1 .058-.075l3-3.188a.505.505 0 0 1 .085-.072l3.437-2.313a.503.503 0 0 1 .115-.057l3.937-1.375a.5.5 0 0 1 .113-.025l4.353-.456a.505.505 0 0 1 .095-.001zm218.994-19.663v100.117h37.797V55.47zm-.5-1 38.798.055a.5.5 0 0 1 .499.5v101.062c0 .277-.223.5-.5.5h-38.797a.499.499 0 0 1-.5-.5V54.915a.5.5 0 0 1 .5-.5zM70.618 53.13l-6.45.275-6.086.682-5.764 1.113-5.392 1.609-5.016 2.04-4.638 2.47L33 64.288l-3.96 3.4-3.529 3.771-3.033 4.02-2.598 4.323-2.107 4.643-1.674 4.888-1.178 5.137-.684 5.46-.251 5.76.492 7.999 1.42 7.436 2.301 6.901 3.259 6.344 4.024 5.702 4.473 4.908 5.005 4.016 5.435 3.212 6.243 2.472 7.286 1.732 8.395 1.059 9.46.375 10.834-.434 9.502-1.176 8.149-2.053 6.8-2.905 5.87-3.769 5.507-4.888 5.001-5.921 4.115-6.37-37.117-3.463-3.332 3.689a.497.497 0 0 1-.066.061l-3.25 2.5a.506.506 0 0 1-.115.066l-5.312 2.188a.522.522 0 0 1-.13.034l-5.562.687a.465.465 0 0 1-.112.001l-4.312-.437a.546.546 0 0 1-.098-.02l-3.813-1.188a.502.502 0 0 1-.105-.046l-3.5-2.063a.465.465 0 0 1-.092-.07l-3-2.875a.497.497 0 0 1-.062-.072l-1.813-2.562a.511.511 0 0 1-.047-.084l-1.462-3.251-1.139-3.876-.688-4.375a.5.5 0 0 1 .494-.578h77.188v-3.852l-.433-9.454-1.175-8.502-2.053-7.653-2.846-6.62-3.585-5.81-4.388-5.067-5.066-4.387-5.87-3.584-6.806-2.846-7.905-2.042-9.083-1.184zm595.762 0-6.4.275-6.08.68-5.77 1.178-5.387 1.606-5.019 2.104-4.703 2.534-4.395 3.03-4.027 3.466-3.654 3.836-3.154 4.077-2.604 4.336-2.227 4.568-1.673 4.889-1.18 5.081-.746 5.328-.25 5.64.308 6.018.802 5.693 1.417 5.44 2.042 5.079 2.531 4.824 3.151 4.578 3.715 4.214 4.267 3.963 3.904 2.852 4.14 2.537 4.459 2.108 4.701 1.735 5.094 1.306 5.269.993 5.654.561 5.903.187 6.59-.247 6.272-.682 5.829-1.114 5.511-1.606 5.082-2.105 4.767-2.535 4.392-2.965 4.023-3.463 3.592-3.835 3.097-4.085 2.66-4.322 2.106-4.578 1.674-4.893 1.24-5.133.684-5.397.25-5.647-.184-5.023-.555-4.828-.989-4.646-1.359-4.456-1.731-4.208-2.102-4.023-2.469-3.832-2.902-3.586-4.079-4.085-4.514-3.528-5.006-3.034-5.451-2.418-5.951-1.925-6.396-1.368-6.831-.871zm-240.384 0-5.683.273-5.189.799-4.753 1.354-4.34 1.86-4.044 2.508-4.03 3.221-4.092 3.903-4.063 4.688a.5.5 0 0 1-.878-.328V55.471h-35.062v100.062h37.75v-48.019l.256-6.43.812-5.375a.433.433 0 0 1 .019-.08l1.375-4.25a.507.507 0 0 1 .048-.105l1.938-3.188a.51.51 0 0 1 .078-.098l2.375-2.313a.487.487 0 0 1 .083-.065l2.688-1.688a.478.478 0 0 1 .107-.05l3-1a.508.508 0 0 1 .112-.024l3.375-.313a.507.507 0 0 1 .088 0l3 .25a.514.514 0 0 1 .093.017l2.687.75c.035.01.068.023.099.04l2.25 1.187c.037.02.071.043.102.07l1.938 1.75c.03.028.056.058.079.092l1.562 2.313c.023.033.041.069.055.107l1.125 3.063a.46.46 0 0 1 .024.088l.631 3.743.251 4.466v55.062h37.937l.001-63.72-.56-9.274-1.732-7.98-2.772-6.653-3.929-5.34-4.911-4.114-5.714-2.949-6.655-1.725zm-.048-1 7.707.655a.5.5 0 0 1 .082.014l6.75 1.75c.036.01.071.023.104.04l5.813 3a.51.51 0 0 1 .091.061l5 4.188a.497.497 0 0 1 .082.087l4 5.437a.472.472 0 0 1 .059.104l2.812 6.75a.52.52 0 0 1 .028.086l1.75 8.063c.005.025.008.05.01.076l.562 9.312.001 64.28c0 .277-.223.5-.5.5h-38.937a.5.5 0 0 1-.5-.5v-55.562l-.249-4.41-.611-3.586-1.088-2.962-1.495-2.212-1.846-1.667-2.147-1.133-2.59-.723-2.909-.243-3.274.303-2.889.963-2.591 1.628-2.292 2.23-1.874 3.084-1.344 4.155-.807 5.335-.244 6.32v48.48a.5.5 0 0 1-.5.5h-38.75a.5.5 0 0 1-.5-.5V54.971a.5.5 0 0 1 .5-.5h36.062a.5.5 0 0 1 .5.5v15.097l3.185-3.675 4.158-3.971 4.095-3.279 4.174-2.597a.472.472 0 0 1 .066-.035l4.375-1.875 4.873-1.396 5.31-.826zm240.388 0 7.42.279 6.919.878 6.479 1.382 6.049 1.951 5.549 2.456 5.119 3.092 4.611 3.596 4.171 4.166 2.972 3.664 2.532 3.918 2.148 4.102 1.769 4.291 1.391 4.545 1.011 4.73.57 4.921.191 5.101-.251 5.728-.691 5.479-1.259 5.242-1.701 4.982-2.144 4.672-2.716 4.428-3.152 4.165-3.658 3.914-4.102 3.538-4.484 3.035-4.857 2.59-5.169 2.145-5.613 1.643-5.922 1.136-6.352.694-6.66.253-5.972-.188-5.721-.565-5.356-1.006-5.157-1.319-4.798-1.765-4.541-2.142-4.235-2.589-3.971-2.897-4.358-4.038-3.785-4.285-3.224-4.672-2.594-4.926-2.083-5.171-1.458-5.561-.824-5.806-.316-6.107.249-5.735.755-5.422 1.195-5.169 1.702-4.986 2.273-4.682 2.646-4.414 3.221-4.173 3.721-3.914 4.098-3.534 4.48-3.096 4.797-2.59 5.106-2.147 5.488-1.643 5.855-1.198 6.17-.695zm-595.761 0 10.372.466 9.167 1.192 8.06 2.074a.51.51 0 0 1 .068.023l6.875 2.875c.024.01.046.02.068.034l5.937 3.625c.024.015.046.03.067.049l5.125 4.437a.554.554 0 0 1 .051.051l4.437 5.125c.018.02.034.042.048.065l3.625 5.875a.53.53 0 0 1 .034.065l2.875 6.687a.537.537 0 0 1 .023.068l2.063 7.688 1.2 8.623.441 9.546.001 4.398a.5.5 0 0 1-.5.5H53.509l.597 3.797 1.11 3.749 1.394 3.079 1.757 2.485 2.924 2.801 3.4 2.004 3.709 1.155 4.206.427 5.44-.673 5.189-2.136 3.161-2.432 3.47-3.841a.5.5 0 0 1 .417-.163l38.188 3.563a.499.499 0 0 1 .373.769l-4.562 7.062-5.1 6.051a.502.502 0 0 1-.051.052l-5.562 4.937a.561.561 0 0 1-.062.047l-5.937 3.813a.583.583 0 0 1-.074.039l-6.875 2.937a.496.496 0 0 1-.074.025l-8.188 2.063-9.623 1.199-10.916.44-9.54-.374-8.48-1.067-7.428-1.759a.55.55 0 0 1-.07-.022l-6.312-2.5a.463.463 0 0 1-.07-.034l-5.5-3.25a.474.474 0 0 1-.059-.041l-5.062-4.062a.49.49 0 0 1-.057-.053l-4.5-4.938-4.1-5.798-3.35-6.497a.533.533 0 0 1-.03-.071l-2.312-6.937-1.454-7.564-.508-8.126.25-5.865.69-5.54 1.196-5.238 1.702-4.987 2.143-4.733 2.652-4.425 3.092-4.107 3.596-3.853 4.04-3.475 4.352-3.031 4.738-2.53 5.11-2.085 5.482-1.641 5.86-1.137 6.165-.694zM291.252 16.95v25.374l37.797.023V16.97zm-141.096 0v138.584h37.893V16.971zm400.984 0v47.869a.5.5 0 0 1-.85.357l-2.857-2.807-3.15-2.412-3.32-2.094-3.586-1.672-3.692-1.357-3.951-.929-4.206-.559-4.333-.187-4.511.183-4.26.614-4.078 1.048-3.885 1.415-3.698 1.845-3.461 2.284-3.274 2.652-3.089 3.085-2.782 3.458-2.469 3.82-2.044 4.268-1.673 4.58-1.304 4.96-.933 5.338-.56 5.653-.188 6.078.678 10.743 2.055 9.9 3.347 9.051 4.753 8.218 2.834 3.641 3.142 3.147 3.409 2.666 3.728 2.143 4.061 1.728 4.322 1.176 4.697.745 4.95.25 4.942-.244 4.749-.798 4.442-1.353 4.28-1.923 3.167-2.005 3.338-2.779 3.54-3.6 3.75-4.375a.5.5 0 0 1 .879.326v14.437h35.25V16.971zm-.499-1 39.159.022a.5.5 0 0 1 .499.5v139.562c0 .277-.223.5-.5.5h-36.25a.5.5 0 0 1-.5-.5v-13.585l-2.87 3.348-3.585 3.65-3.412 2.846-3.302 2.101a.477.477 0 0 1-.063.034l-4.313 1.937-4.558 1.398-4.876.827-5.058.256-5.05-.25-4.803-.755-4.428-1.199-4.189-1.772-3.866-2.214a.625.625 0 0 1-.06-.04l-3.437-2.688-3.233-3.228-2.916-3.733-4.851-8.37a.493.493 0 0 1-.036-.077l-3.375-9.125a.427.427 0 0 1-.021-.072l-2.062-9.937-.697-10.882.187-6.172.564-5.722.943-5.411 1.321-5.042 1.702-4.669 2.081-4.357 2.531-3.93 2.843-3.542 3.161-3.166 3.351-2.722 3.539-2.341 3.802-1.905 3.99-1.46 4.172-1.077 4.365-.636 4.614-.192 4.417.187 4.294.567 4.049.946 3.808 1.392 3.663 1.704 3.431 2.155 3.225 2.464 2.099 2.055v-47.18a.5.5 0 0 1 .501-.5zm-259.889 0 38.798.022a.5.5 0 0 1 .499.5v26.375a.5.5 0 0 1-.5.5l-38.798-.023a.5.5 0 0 1-.499-.5V16.448a.5.5 0 0 1 .5-.5zm-141.095 0 38.893.022a.5.5 0 0 1 .499.5v139.562c0 .277-.223.5-.5.5h-38.893a.5.5 0 0 1-.5-.5V16.448a.5.5 0 0 1 .501-.5zm103.96-1.381-5.951.213-5.146.556-4.435.857-3.641 1.235-5.779 3.32-4.278 4.155-2.998 5.324-1.907 6.625-.996 7.022-.374 6.47v4.626a.5.5 0 0 1-.5.5h-13.938v27.375h13.938a.5.5 0 0 1 .5.5v72.187h37.875V83.346a.5.5 0 0 1 .5-.5h18V55.47h-18a.5.5 0 0 1-.5-.51l.063-3.128.064-2.535.19-1.96.188-1.313a.482.482 0 0 1 .027-.106l1.25-3.312a.51.51 0 0 1 .089-.15l1.938-2.25a.491.491 0 0 1 .181-.133l3.063-1.313a.497.497 0 0 1 .149-.038l4.5-.437a.485.485 0 0 1 .079-.002l4.97.316 5.842.752 4.069-22.442-8.584-.941-7.99-.75-6.789-.498zm-.036-1 5.732.153 6.835.501 8.011.751 9.132 1a.502.502 0 0 1 .438.587l-4.25 23.438a.5.5 0 0 1-.556.406l-6.312-.812-4.866-.307-4.382.426-2.885 1.236-1.804 2.096-1.2 3.178-.18 1.258-.184 1.915-.061 2.464-.052 2.613h17.99a.5.5 0 0 1 .5.5v28.375a.5.5 0 0 1-.5.5h-18v72.187a.5.5 0 0 1-.5.5h-38.875a.5.5 0 0 1-.5-.5V83.846h-13.938a.5.5 0 0 1-.5-.5V54.97a.5.5 0 0 1 .5-.5h13.938v-4.125l.376-6.529 1.004-7.104 1.952-6.818a.52.52 0 0 1 .045-.107l3.062-5.438a.5.5 0 0 1 .088-.113l4.375-4.25a.48.48 0 0 1 .099-.075l5.875-3.375a.518.518 0 0 1 .088-.04l3.688-1.25 4.565-.892 5.229-.569z" fill="#015B84" fill-rule="evenodd"/><path d="M528.771 77.375c-4.506 0-8.283 1.873-11.33 5.618-3.047 3.745-4.571 10.03-4.571 18.852 0 8.252 1.572 14.299 4.714 18.139 3.142 3.84 7.03 5.76 11.663 5.76 4.952 0 9.078-1.936 12.378-5.808 3.301-3.872 4.952-10.188 4.952-18.947 0-7.935-1.683-13.854-5.047-17.758s-7.617-5.856-12.759-5.856zM662.58 75.09c-5.649 0-10.315 2.174-13.997 6.522-3.681 4.349-5.522 10.966-5.522 19.853 0 9.013 1.825 15.678 5.475 19.995 3.65 4.316 8.236 6.474 13.758 6.474 5.586 0 10.172-2.126 13.759-6.379 3.586-4.253 5.379-11.077 5.379-20.471 0-8.76-1.809-15.282-5.427-19.567-3.618-4.284-8.093-6.427-13.425-6.427zM67.866 71.377c-6.158 0-11.077 2.444-14.759 7.331-2.348 3.047-3.84 7.586-4.475 13.616h38.181c-.761-7.49-2.777-12.854-6.046-16.091-3.269-3.238-7.57-4.856-12.901-4.856zm218.536-20.662h38.753v101.118h-38.753zm375.607-2.285c20.249 0 35.547 5.871 45.893 17.615 8.316 9.458 12.473 21.106 12.473 34.944 0 15.551-5.157 28.294-15.472 38.228-10.315 9.934-24.581 14.901-42.799 14.901-16.25 0-29.39-4.126-39.419-12.377-12.315-10.22-18.472-23.614-18.472-40.181 0-15.425 5.205-28.136 15.615-38.134 10.411-9.997 24.471-14.996 42.181-14.996zm-240.386 0c10.727 0 19.122 3.19 25.184 9.57 6.062 6.378 9.093 16.233 9.093 29.563v64.27h-38.943V96.228c0-6.348-1.174-10.839-3.523-13.473-2.348-2.634-5.649-3.951-9.902-3.951-4.697 0-8.506 1.777-11.426 5.331-2.92 3.555-4.38 9.935-4.38 19.139v48.559h-38.752V50.715h36.086v16.472c5.396-6.728 10.855-11.537 16.377-14.425 5.523-2.888 12.251-4.332 20.186-4.332zm-355.376 0c14.473 0 25.898 2.19 34.277 6.57 8.379 4.38 14.759 10.727 19.138 19.043 4.38 8.315 6.57 19.138 6.57 32.468v4.38H48.537c.698 6.221 2.38 10.854 5.046 13.901 3.745 4.38 8.633 6.57 14.663 6.57 3.81 0 7.427-.952 10.855-2.856 2.095-1.206 4.348-3.333 6.76-6.38l38.181 3.523c-5.839 10.156-12.885 17.44-21.137 21.852-8.252 4.412-20.09 6.617-35.516 6.617-13.393 0-23.93-1.888-31.61-5.665-7.682-3.777-14.045-9.775-19.091-17.995-5.047-8.221-7.57-17.885-7.57-28.993 0-15.806 5.062-28.597 15.187-38.372C34.429 53.318 48.41 48.43 66.247 48.43zm480.044-36.182h39.133v139.585h-36.277v-14.948c-5.078 6.347-9.712 10.632-13.901 12.854-5.586 2.919-11.807 4.379-18.662 4.379-13.775 0-24.296-5.236-31.564-15.71-7.268-10.474-10.902-23.201-10.902-38.181 0-16.758 4.015-29.58 12.045-38.467 8.03-8.887 18.233-13.33 30.611-13.33 6.031 0 11.505 1.016 16.425 3.047 4.919 2.031 9.283 5.078 13.092 9.14zm-259.889 0h38.753v26.375h-38.753zm-141.095 0h38.848v139.585h-38.848zm103.943-2.38c6.792 0 16.662.793 29.612 2.38l-4.285 23.423c-4.634-.761-8.379-1.142-11.235-1.142-3.492 0-5.999.587-7.522 1.761-1.524 1.174-2.603 3.031-3.238 5.57-.317 1.397-.476 4.348-.476 8.855h18.472V79.09h-18.472v72.744h-38.847V79.089h-14.473V50.715h14.473v-4.57c0-4.126.444-8.665 1.333-13.616.888-4.951 2.555-8.998 4.998-12.14 2.444-3.142 5.872-5.681 10.284-7.617 4.411-1.936 10.87-2.904 19.376-2.904z" stroke="#48ACC3" stroke-linejoin="round" stroke-miterlimit="10" fill="#48ACC3" fill-rule="evenodd"/><text fill-opacity="0" font-family="Arial,Arial_MSFontService,sans-serif" font-size="144.25" x="9.118" y="136.087">elfindo</text></g></svg>